<?xml version="1.0" standalone="no"?>
<!DOCTYPE svg PUBLIC "-//W3C//DTD SVG 20010904//EN"
 "http://www.w3.org/TR/2001/REC-SVG-20010904/DTD/svg10.dtd">
<svg version="1.0" xmlns="http://www.w3.org/2000/svg"
 width="2000.000000pt" height="2000.000000pt" viewBox="0 0 2000.000000 2000.000000"
 preserveAspectRatio="xMidYMid meet">
<metadata>
Created by potrace 1.14, written by Peter Selinger 2001-2017
</metadata>
<g transform="translate(0.000000,2000.000000) scale(0.100000,-0.100000)"
fill="#000000" stroke="none">
<path d="M9627 16214 c-1 -1 -42 -5 -92 -8 -49 -4 -121 -11 -160 -17 -38 -5
-88 -12 -110 -14 -22 -3 -51 -8 -65 -10 -14 -3 -41 -7 -60 -10 -76 -12 -99
-17 -210 -40 -63 -13 -167 -38 -230 -54 -63 -17 -124 -33 -135 -36 -44 -10
-295 -95 -395 -133 -222 -83 -493 -209 -659 -304 -46 -26 -86 -48 -88 -48 -6
0 -216 -131 -315 -197 l-97 -65 33 -52 c19 -29 52 -81 75 -117 150 -234 299
-468 353 -554 34 -55 66 -101 70 -103 5 -2 8 -7 8 -12 0 -4 50 -86 111 -181
62 -96 159 -248 217 -339 58 -91 133 -207 166 -259 34 -52 70 -109 81 -127 21
-35 117 -186 318 -499 224 -349 276 -432 243 -391 -9 11 -26 31 -38 45 -13 15
-50 60 -83 101 -33 41 -70 86 -81 100 -45 52 -136 162 -314 379 -102 123 -264
320 -360 436 -96 117 -190 230 -208 253 -19 23 -41 50 -50 61 -10 10 -24 28
-32 38 -32 39 -255 309 -265 319 -5 7 -21 26 -35 44 -14 17 -33 41 -43 53 -38
44 -90 107 -262 317 -97 118 -185 223 -195 233 -17 18 -20 16 -96 -49 -220
-190 -457 -432 -635 -649 -304 -369 -579 -823 -762 -1255 l-53 -125 135 -100
c235 -174 599 -442 701 -514 30 -22 107 -78 170 -125 63 -47 124 -92 135 -100
11 -8 49 -36 85 -63 36 -27 153 -112 260 -191 107 -78 355 -259 550 -403 195
-143 436 -320 535 -392 99 -72 185 -135 190 -140 10 -8 121 -89 670 -492 149
-109 274 -201 278 -205 5 -4 -54 -53 -130 -109 -76 -56 -145 -107 -153 -114
-8 -7 -64 -48 -125 -92 -60 -44 -114 -83 -120 -87 -5 -5 -41 -31 -79 -60 l-69
-51 -136 43 c-75 23 -140 43 -146 44 -5 1 -77 24 -160 50 -255 81 -484 153
-635 200 -80 25 -298 93 -485 151 -335 105 -505 158 -800 250 -82 25 -229 71
-325 101 -343 109 -627 197 -666 208 -19 6 -21 3 -19 -36 4 -71 17 -242 20
-260 2 -9 6 -44 10 -77 3 -33 8 -70 10 -83 3 -13 8 -43 11 -68 30 -231 142
-678 234 -931 l30 -85 83 -3 c45 -1 102 -4 127 -6 25 -2 97 -6 160 -10 63 -3
147 -7 185 -10 39 -2 122 -6 185 -10 260 -13 350 -24 224 -26 -32 -1 -70 -3
-84 -4 -14 -1 -79 -5 -145 -9 -66 -4 -138 -9 -160 -11 -22 -3 -85 -7 -140 -10
-55 -3 -127 -8 -160 -10 -33 -3 -96 -7 -140 -10 -43 -3 -81 -7 -82 -9 -5 -5
102 -245 170 -381 35 -71 99 -191 142 -265 78 -136 276 -441 298 -458 8 -7
135 66 412 239 220 137 420 261 445 277 115 74 210 132 210 128 0 -2 -44 -39
-97 -82 -54 -43 -100 -80 -103 -84 -3 -3 -106 -86 -230 -185 -124 -99 -227
-182 -230 -185 -3 -3 -71 -58 -152 -124 -82 -65 -148 -121 -148 -124 0 -5 34
-50 66 -89 11 -12 37 -43 59 -70 67 -81 216 -243 300 -328 183 -184 461 -423
476 -408 8 8 292 736 319 818 7 22 15 36 16 30 2 -5 -49 -220 -114 -476 l-118
-466 26 -19 c15 -10 105 -71 201 -135 309 -207 578 -349 944 -498 11 -5 31
-13 45 -19 14 -6 50 -20 80 -30 30 -11 63 -24 73 -27 18 -7 18 56 16 1720 -1
1135 1 1729 8 1733 10 7 145 106 458 337 94 69 191 141 217 160 l47 34 28 -22
c15 -13 129 -97 253 -187 124 -90 237 -173 251 -184 15 -12 37 -29 50 -38 13
-9 60 -43 104 -75 44 -33 105 -78 136 -100 l56 -42 1 -1793 c0 -986 1 -1803 1
-1816 1 -22 1 -23 139 -20 l137 3 0 1813 0 1813 135 99 c74 55 140 103 145
107 6 5 111 82 235 172 124 90 247 181 274 202 l50 37 45 -34 c25 -18 51 -37
56 -41 6 -5 138 -102 295 -217 157 -115 287 -211 290 -213 2 -2 3 -780 2
-1728 -2 -1017 1 -1725 6 -1725 17 0 221 79 364 140 320 138 663 332 939 531
l76 54 -48 190 c-27 105 -50 199 -53 210 -2 11 -12 49 -21 85 -9 36 -19 74
-21 85 -2 11 -26 105 -52 209 -27 104 -43 180 -35 170 7 -10 13 -23 13 -28 0
-6 16 -52 35 -101 20 -50 90 -232 157 -405 66 -173 124 -319 129 -324 7 -7 89
51 124 88 6 6 35 31 65 56 118 96 397 369 505 495 33 38 67 76 75 85 14 15 42
49 110 135 l32 40 -34 30 c-18 16 -51 44 -72 60 -22 17 -53 42 -70 56 -17 14
-112 90 -211 169 -99 79 -182 147 -185 150 -3 3 -25 21 -50 40 -25 19 -47 37
-50 40 -3 3 -71 58 -152 123 -82 65 -148 120 -148 122 0 2 73 -41 163 -97 89
-56 185 -116 212 -132 28 -17 180 -112 338 -211 158 -99 300 -188 315 -197 15
-9 32 -17 38 -17 16 -1 180 243 295 437 115 196 341 663 328 677 -3 2 -43 7
-89 10 -47 3 -114 7 -150 10 -36 2 -105 7 -155 10 -205 13 -400 27 -435 30
-14 2 -52 3 -84 4 -130 2 -35 14 209 26 124 6 256 13 360 20 39 2 124 7 190
11 147 8 198 11 206 13 6 1 73 196 118 341 20 66 69 256 77 299 3 12 11 51 19
85 8 33 17 77 20 96 3 19 12 69 20 112 8 42 17 98 20 125 3 27 7 59 10 71 2
11 6 52 10 89 3 37 8 79 10 93 3 14 7 71 11 128 5 82 3 102 -8 102 -7 0 -53
-13 -103 -29 -49 -16 -193 -62 -320 -101 -126 -39 -248 -77 -270 -85 -22 -7
-87 -28 -145 -45 -58 -18 -118 -36 -135 -42 -29 -9 -887 -278 -1085 -340 -52
-16 -122 -38 -155 -48 -33 -10 -177 -55 -320 -100 -143 -45 -280 -88 -305 -95
-25 -7 -137 -42 -250 -78 -113 -36 -224 -70 -247 -76 l-42 -11 -103 75 c-57
42 -114 85 -128 95 -14 10 -70 52 -125 92 -55 41 -142 105 -193 142 -51 38
-89 72 -85 76 4 3 42 31 83 61 41 30 82 59 90 66 24 19 382 282 417 306 17 12
120 87 228 167 108 80 218 161 244 180 27 19 102 74 167 122 343 252 524 384
1114 818 355 260 661 485 681 499 20 14 176 129 347 254 l310 228 -33 82 c-78
195 -185 419 -283 592 -48 85 -181 303 -194 320 -8 9 -133 187 -168 239 -13
19 -105 137 -135 173 -5 7 -14 18 -20 25 -101 131 -398 441 -563 588 -113 101
-121 106 -137 89 -11 -12 -133 -158 -310 -374 -103 -125 -159 -192 -174 -210
-9 -11 -70 -85 -136 -165 -66 -80 -127 -154 -136 -165 -17 -19 -280 -338 -458
-555 -47 -57 -123 -149 -169 -205 -46 -55 -88 -107 -95 -115 -7 -8 -77 -94
-157 -190 -80 -96 -151 -183 -160 -194 -8 -10 -20 -23 -25 -30 -10 -11 -96
-117 -102 -125 -2 -2 -5 -2 -7 0 -5 4 130 219 153 246 6 7 11 14 11 17 0 3 60
99 133 213 74 114 270 422 437 683 167 261 334 522 371 580 37 58 103 161 145
230 43 69 81 127 84 130 6 6 39 56 55 85 6 11 33 54 59 95 158 243 186 288
186 297 0 15 -256 185 -431 286 -164 95 -416 220 -589 292 -63 26 -129 54
-145 61 -63 27 -395 134 -505 163 -198 53 -479 110 -612 126 -23 3 -54 7 -68
10 -14 2 -54 7 -90 11 -36 3 -95 9 -132 13 -37 4 -105 7 -150 7 -81 -1 -83 -2
-84 -26 -1 -14 -5 -101 -9 -195 -8 -207 -12 -313 -20 -470 -3 -66 -8 -174 -10
-240 -3 -66 -7 -172 -10 -235 -2 -63 -7 -164 -10 -225 -5 -106 -10 -217 -20
-470 -3 -66 -7 -160 -10 -210 -2 -49 -7 -155 -10 -235 -3 -80 -8 -188 -10
-240 -3 -52 -7 -151 -10 -220 -3 -69 -7 -168 -10 -220 -2 -52 -7 -158 -10
-235 -8 -180 -13 -308 -21 -470 -3 -71 -7 -165 -8 -207 -3 -89 -16 -118 -17
-37 0 30 -2 61 -3 69 -2 8 -7 56 -10 105 -9 116 -14 174 -21 260 -6 72 -10
124 -19 255 -3 41 -8 100 -11 130 -2 30 -7 89 -10 130 -3 41 -8 100 -10 130
-5 59 -12 147 -20 250 -3 36 -7 95 -10 133 -7 89 -16 202 -20 252 -2 22 -6 76
-10 120 -3 44 -8 103 -10 130 -2 28 -7 88 -10 135 -3 47 -8 103 -10 125 -2 22
-7 78 -10 125 -3 47 -7 108 -10 135 -2 28 -7 86 -10 130 -3 44 -8 96 -10 115
-2 19 -6 77 -9 129 -4 52 -8 112 -11 135 -2 23 -7 77 -10 121 -10 142 -15 209
-20 260 -2 28 -7 91 -11 140 -3 50 -7 106 -9 125 -2 19 -7 82 -11 140 -4 58
-8 112 -10 120 -1 8 -3 21 -3 27 -1 9 -18 12 -57 11 -30 -1 -56 -3 -57 -4z"/>
<path d="M17660 4729 c0 -3 24 -26 53 -51 99 -87 141 -123 161 -143 12 -11 55
-49 96 -85 41 -36 77 -68 80 -71 3 -3 43 -39 90 -80 47 -41 97 -84 111 -97
l27 -23 0 -182 c0 -100 1 -192 1 -205 1 -22 4 -23 58 -20 l57 3 1 200 0 200
26 25 c14 14 59 54 100 90 41 36 79 69 85 75 6 5 44 39 84 75 41 36 81 72 90
80 9 8 49 44 90 80 41 36 90 80 109 98 l34 32 -72 0 c-78 0 -83 -2 -161 -73
-167 -152 -442 -388 -449 -385 -7 2 -127 107 -181 158 -9 8 -47 42 -85 75 -39
33 -72 62 -75 65 -3 3 -41 37 -85 75 -44 39 -82 73 -85 77 -6 8 -160 15 -160
7z"/>
<path d="M985 4253 l0 -478 58 -3 57 -3 0 231 0 230 428 -2 427 -3 2 -200 c0
-110 2 -213 2 -228 1 -28 2 -28 57 -25 l55 3 0 465 c0 256 0 471 0 478 -1 8
-19 12 -56 12 -50 0 -55 -2 -56 -22 -1 -13 -1 -103 -1 -200 l0 -178 -42 -1
c-22 -1 -214 -1 -426 -2 l-385 -1 -3 202 -2 202 -58 0 -57 0 0 -477z"/>
<path d="M2408 4716 c-87 -23 -147 -83 -163 -161 -7 -36 -7 -570 0 -605 14
-70 53 -117 130 -152 49 -23 57 -23 430 -25 417 -2 458 2 525 55 19 16 45 48
57 72 22 42 22 53 22 350 0 306 0 307 -24 356 -28 55 -71 89 -141 110 -64 19
-764 19 -836 0z m815 -100 c69 -34 71 -45 71 -368 1 -274 0 -288 -20 -315 -11
-15 -37 -36 -58 -47 -35 -17 -65 -19 -390 -19 -392 1 -414 4 -451 66 -18 29
-19 55 -20 312 0 249 1 283 18 316 20 40 48 59 104 68 21 4 189 6 373 6 303
-1 339 -3 373 -19z"/>
<path d="M3579 4718 c-3 -46 -4 -925 -1 -935 3 -8 23 -13 53 -13 l49 0 0 63
c1 34 1 216 0 405 0 188 3 342 8 342 4 0 21 -12 37 -28 17 -15 66 -54 109 -87
43 -33 84 -64 90 -70 6 -5 40 -32 76 -59 36 -28 69 -53 75 -58 5 -4 28 -23 51
-40 53 -43 66 -54 352 -278 191 -150 249 -190 272 -190 l30 0 0 480 0 480 -49
0 c-30 0 -50 -5 -53 -12 -2 -7 -3 -185 -3 -395 1 -211 -1 -383 -4 -383 -4 0
-19 12 -36 26 -16 14 -43 35 -58 47 -16 12 -34 27 -40 32 -7 6 -100 80 -207
165 -107 85 -243 193 -301 240 -59 47 -155 123 -213 169 -59 46 -113 90 -121
97 -18 18 -115 19 -116 2z"/>
<path d="M5138 4720 c-62 -11 -131 -53 -162 -98 l-30 -42 1 -322 c1 -345 4
-370 52 -410 35 -30 95 -56 152 -67 69 -12 557 -13 635 -1 81 13 154 52 184
97 24 37 25 42 25 233 l0 194 -56 1 -55 0 -1 -140 c-2 -229 0 -220 -28 -248
-43 -42 -104 -50 -385 -50 -260 1 -303 4 -353 30 -52 26 -55 51 -53 369 1 326
-2 312 76 348 43 19 65 20 445 21 l399 0 1 48 2 47 -406 -1 c-223 -1 -423 -5
-443 -9z"/>
<path d="M6350 4723 c-45 -7 -104 -37 -133 -66 -57 -58 -60 -76 -62 -387 0
-157 3 -301 7 -320 21 -88 76 -144 164 -167 16 -4 198 -8 405 -10 400 -2 428
0 505 48 19 11 47 42 62 67 l27 47 0 315 c0 307 -1 316 -22 357 -27 51 -72 85
-136 107 -41 14 -102 16 -420 15 -205 -1 -383 -4 -397 -6z m785 -105 c72 -38
70 -28 73 -357 3 -296 3 -297 -20 -331 -40 -59 -61 -62 -453 -62 -500 -1 -468
-29 -463 397 3 324 4 326 90 355 68 23 729 21 773 -2z"/>
<path d="M11846 4718 c5 -7 51 -78 104 -158 53 -80 127 -192 165 -250 37 -58
84 -129 104 -158 20 -29 41 -61 46 -70 6 -9 54 -83 107 -164 l97 -148 41 0 41
0 166 253 c91 138 197 299 234 357 37 58 72 110 76 115 7 9 75 111 137 208
l18 27 -65 0 -65 0 -92 -142 c-51 -79 -130 -201 -177 -273 -47 -71 -126 -194
-177 -273 l-93 -143 -152 233 c-162 248 -249 383 -334 515 l-52 83 -68 0 c-52
0 -66 -3 -61 -12z"/>
<path d="M13660 4524 c-74 -112 -139 -212 -145 -221 -5 -9 -14 -22 -18 -27
-18 -24 -327 -497 -327 -501 0 -3 28 -5 63 -5 l62 1 50 77 c27 42 113 174 191
292 77 118 177 271 222 339 l81 123 47 -73 c26 -41 123 -190 216 -332 92 -142
168 -263 168 -268 0 -5 4 -9 9 -9 5 0 11 -6 13 -12 2 -7 21 -41 43 -75 l40
-63 64 0 c51 0 62 3 58 14 -3 8 -50 82 -104 163 -54 81 -100 153 -103 158 -3
6 -39 62 -81 125 -42 63 -133 202 -202 308 l-127 192 -42 0 -43 -1 -135 -205z"/>
<path d="M14589 4728 c-1 -2 -2 -218 -3 -481 l-1 -477 458 0 457 0 0 48 0 49
-372 1 c-205 0 -385 1 -399 1 l-26 1 -1 418 c0 229 -1 423 -1 430 -1 8 -19 12
-56 12 -30 0 -55 -1 -56 -2z"/>
<path d="M15625 4253 l0 -478 458 -3 457 -2 0 48 0 49 -382 1 c-211 0 -391 1
-400 1 -16 1 -17 33 -17 429 l1 427 -59 3 -58 3 0 -478z"/>
<path d="M16669 4723 c-1 -5 -2 -221 -3 -481 l-1 -472 470 2 470 3 0 45 -1 45
-409 1 -410 1 -3 182 -2 181 394 0 394 0 -1 48 0 49 -391 0 -391 -1 0 155 0
154 410 0 410 0 1 35 c0 19 -2 41 -4 48 -3 9 -106 12 -468 12 -255 0 -465 -3
-465 -7z"/>
<path d="M7810 4473 c0 -3 18 -46 41 -96 23 -51 49 -110 59 -132 10 -22 34
-74 53 -116 19 -42 63 -140 98 -218 61 -140 62 -141 94 -141 29 0 35 5 50 43
9 23 60 141 112 262 52 121 100 232 106 248 7 15 15 27 18 27 4 0 14 -19 24
-42 9 -24 23 -56 31 -73 29 -63 166 -382 182 -422 14 -38 20 -43 48 -43 26 0
34 6 47 33 19 40 52 113 112 247 46 103 68 151 118 260 14 30 36 80 50 111
l24 56 -42 0 c-42 1 -44 -1 -63 -46 -11 -25 -61 -138 -112 -251 -51 -113 -101
-225 -112 -250 l-19 -45 -80 185 c-44 102 -87 201 -95 220 -82 190 -79 185
-104 186 -31 2 -50 -5 -50 -18 0 -5 -13 -37 -28 -71 -16 -34 -70 -160 -122
-279 -51 -120 -95 -216 -97 -214 -2 2 -62 133 -132 292 l-128 288 -42 3 c-22
1 -41 0 -41 -4z"/>
<path d="M9138 4461 c-3 -13 -2 -658 1 -683 1 -5 156 -8 345 -8 l344 0 0 35
c0 29 -4 35 -21 36 -12 0 -148 1 -303 1 l-281 0 1 132 1 131 288 3 287 2 0 35
0 35 -288 0 -289 0 0 113 0 114 294 -1 c162 -1 298 1 302 4 4 3 7 19 7 35 l-1
30 -342 1 c-304 1 -342 -1 -345 -15z"/>
<path d="M9939 4466 c-1 -14 -1 -642 0 -674 l1 -23 318 3 c286 3 321 5 355 22
63 31 79 65 83 166 3 96 -13 146 -52 165 -22 11 -21 11 7 39 34 34 43 75 36
158 -6 71 -26 103 -83 132 -37 20 -57 21 -351 22 -221 1 -313 -2 -314 -10z
m611 -73 c40 -17 49 -35 53 -102 4 -54 1 -66 -18 -89 l-23 -27 -269 0 -268 0
-1 110 c-1 61 0 113 2 116 5 10 498 3 524 -8z m-6 -297 c54 -11 66 -31 66
-110 0 -145 6 -142 -325 -143 -140 -1 -256 2 -256 5 -1 4 -3 62 -4 129 l-3
122 72 3 c110 5 417 0 450 -6z"/>
<path d="M10810 4441 l0 -36 232 1 c314 1 331 -4 335 -105 3 -69 -13 -97 -62
-109 -16 -4 -130 -7 -252 -7 l-221 1 -4 -33 c-2 -18 -2 -34 2 -34 3 -1 111 -2
240 -4 240 -2 281 -8 298 -42 5 -10 8 -53 7 -96 -2 -129 -17 -135 -325 -135
-113 0 -215 -1 -227 -1 -19 -1 -23 -7 -23 -37 l0 -36 268 4 c253 3 269 4 312
25 66 33 80 65 80 178 0 103 -10 136 -48 161 -22 14 -23 18 -10 28 35 27 51
67 50 131 -1 87 -22 128 -80 157 -45 22 -58 23 -309 24 l-263 1 0 -36z"/>
</g>
</svg>
